<mxfile host="app.diagrams.net" modified="2025-09-03T00:00:00.000Z" agent="AI" version="22.0.0" editor="www.diagrams.net">
  <diagram id="real-draft-flow" name="Real Draft Flow">
    <mxGraphModel dx="1280" dy="720" grid="1" gridSize="10" guides="1" tooltips="1" connect="1" arrows="1" fold="1" page="1" pageScale="1" pageWidth="1920" pageHeight="1080" background="#FFFFFF">
      <root>
        <mxCell id="0"/>
        <mxCell id="1" parent="0"/>

        <mxCell id="title" value="Real Draft Flow (League Season)" style="rounded=1;whiteSpace=wrap;html=1;fontSize=22;fontStyle=1;fillColor=#DBEAFE;strokeColor=#1E3A8A;fontColor=#0F172A;align=center;verticalAlign=middle;" vertex="1" parent="1">
          <mxGeometry x="40" y="20" width="620" height="60" as="geometry"/>
        </mxCell>

        <!-- Timing phases -->
        <mxCell id="t1" value="T-60min: Room Opens (Preview)" style="rounded=1;whiteSpace=wrap;html=1;fillColor=#DBEAFE;strokeColor=#1E3A8A;fontColor=#0F172A;" vertex="1" parent="1">
          <mxGeometry x="40" y="110" width="300" height="60" as="geometry"/>
        </mxCell>
        <mxCell id="t2" value="T=0: Draft Live (Pick Clock)" style="rounded=1;whiteSpace=wrap;html=1;fillColor=#FBBF24;strokeColor=#B45309;fontColor=#111827;" vertex="1" parent="1">
          <mxGeometry x="370" y="110" width="300" height="60" as="geometry"/>
        </mxCell>
        <mxCell id="t3" value="Finalize: Status Completed" style="rounded=1;whiteSpace=wrap;html=1;fillColor=#10B981;strokeColor=#065F46;fontColor=#06221B;" vertex="1" parent="1">
          <mxGeometry x="700" y="110" width="300" height="60" as="geometry"/>
        </mxCell>

        <!-- Live flow -->
        <mxCell id="l1" value="Enable Pick Clock / Actions" style="rounded=1;whiteSpace=wrap;html=1;fillColor=#F3F4F6;strokeColor=#374151;fontColor=#111827;" vertex="1" parent="1">
          <mxGeometry x="370" y="190" width="300" height="60" as="geometry"/>
        </mxCell>
        <mxCell id="l2" value="User Turn?" style="shape=rhombus;whiteSpace=wrap;html=1;fillColor=#F3F4F6;strokeColor=#374151;fontColor=#111827;" vertex="1" parent="1">
          <mxGeometry x="370" y="270" width="180" height="80" as="geometry"/>
        </mxCell>
        <mxCell id="l3" value="Pick Window Open" style="rounded=1;whiteSpace=wrap;html=1;fillColor=#F3F4F6;strokeColor=#374151;fontColor=#111827;" vertex="1" parent="1">
          <mxGeometry x="580" y="270" width="230" height="60" as="geometry"/>
        </mxCell>
        <mxCell id="l4" value="Timer Expired?\nAuto-Pick BPA" style="rounded=1;whiteSpace=wrap;html=1;fillColor=#FEE2E2;strokeColor=#DC2626;fontColor=#7F1D1D;" vertex="1" parent="1">
          <mxGeometry x="370" y="370" width="220" height="80" as="geometry"/>
        </mxCell>

        <mxCell id="c1" value="Validate Pick" style="rounded=1;whiteSpace=wrap;html=1;fillColor=#F3F4F6;strokeColor=#374151;fontColor=#111827;" vertex="1" parent="1">
          <mxGeometry x="370" y="470" width="200" height="60" as="geometry"/>
        </mxCell>
        <mxCell id="c2" value="Write draft_picks / Update draft_states" style="rounded=1;whiteSpace=wrap;html=1;fillColor=#F3F4F6;strokeColor=#374151;fontColor=#111827;" vertex="1" parent="1">
          <mxGeometry x="600" y="470" width="260" height="60" as="geometry"/>
        </mxCell>
        <mxCell id="c3" value="Write roster_slots / transactions / budgets" style="rounded=1;whiteSpace=wrap;html=1;fillColor=#10B981;strokeColor=#065F46;fontColor=#06221B;" vertex="1" parent="1">
          <mxGeometry x="900" y="470" width="320" height="60" as="geometry"/>
        </mxCell>

        <mxCell id="fin1" value="Generate Board / Save / Notify" style="rounded=1;whiteSpace=wrap;html=1;fillColor=#F3F4F6;strokeColor=#374151;fontColor=#111827;" vertex="1" parent="1">
          <mxGeometry x="700" y="190" width="300" height="60" as="geometry"/>
        </mxCell>

        <!-- Edges -->
        <mxCell id="e1" edge="1" parent="1" source="t1" target="t2" style="endArrow=block;strokeColor=#374151;"/>
        <mxCell id="e2" edge="1" parent="1" source="t2" target="l1" style="endArrow=block;strokeColor=#374151;"/>
        <mxCell id="e3" edge="1" parent="1" source="l1" target="l2" style="endArrow=block;strokeColor=#374151;"/>
        <mxCell id="e4" edge="1" parent="1" source="l2" target="l3" style="endArrow=block;strokeColor=#374151;"/>
        <mxCell id="e5" edge="1" parent="1" source="l2" target="l4" style="endArrow=block;strokeColor=#374151;"/>
        <mxCell id="e6" edge="1" parent="1" source="l3" target="c1" style="endArrow=block;strokeColor=#374151;"/>
        <mxCell id="e7" edge="1" parent="1" source="l4" target="c1" style="endArrow=block;strokeColor=#374151;"/>
        <mxCell id="e8" edge="1" parent="1" source="c1" target="c2" style="endArrow=block;strokeColor=#374151;"/>
        <mxCell id="e9" edge="1" parent="1" source="c2" target="c3" style="endArrow=block;strokeColor=#374151;"/>
        <mxCell id="e10" edge="1" parent="1" source="t3" target="fin1" style="endArrow=block;strokeColor=#374151;"/>

      </root>
    </mxGraphModel>
  </diagram>
</mxfile>